HIERARCHY
ROOT Hips
{
	OFFSET 53.445099 -9.667865 95.969299
	CHANNELS 6 Xposition Yposition Zposition Xrotation Yrotation Zrotation
	JOINT spine
	{
		OFFSET 0.000000 -0.467661 8.132492
		CHANNELS 3 Xrotation Yrotation Zrotation
		JOINT spine1
		{
			OFFSET 0.000000 -0.000002 10.349800
			CHANNELS 3 Xrotation Yrotation Zrotation
			JOINT spine2
			{
				OFFSET 0.000000 -0.000001 9.916992
				CHANNELS 3 Xrotation Yrotation Zrotation
				JOINT Neck
				{
					OFFSET 0.000000 -1.213904 25.461006
					CHANNELS 3 Xrotation Yrotation Zrotation
					JOINT Head
					{
						OFFSET 0.000000 -0.000001 7.692444
						CHANNELS 3 Xrotation Yrotation Zrotation
						End Site
						{
							OFFSET 0.000000 6.140627 18.619995
						}
					}
				}
				JOINT RightShoulder
				{
					OFFSET -4.175751 0.581443 10.709602
					CHANNELS 3 Xrotation Yrotation Zrotation
					JOINT RightArm
					{
						OFFSET 0.000000 -0.000002 14.046600
						CHANNELS 3 Xrotation Yrotation Zrotation
						JOINT RightArmRoll
						{
							OFFSET 0.000000 -0.000002 7.090988
							CHANNELS 3 Xrotation Yrotation Zrotation
							JOINT RightForeArm
							{
								OFFSET 0.000000 -0.000003 20.653503
								CHANNELS 3 Xrotation Yrotation Zrotation
								JOINT RightForeArmRoll
								{
									OFFSET 0.000000 -0.000002 7.957184
									CHANNELS 3 Xrotation Yrotation Zrotation
									JOINT RightHand
									{
										OFFSET 0.000000 -0.000002 15.968307
										CHANNELS 3 Xrotation Yrotation Zrotation
										End Site
										{
											OFFSET 0.000000 0.000000 0.100006
										}
									}
								}
							}
						}
					}
				}
				JOINT LeftShoulder
				{
					OFFSET 4.175751 0.581443 10.709602
					CHANNELS 3 Xrotation Yrotation Zrotation
					JOINT LeftArm
					{
						OFFSET 0.000000 -0.000002 14.046600
						CHANNELS 3 Xrotation Yrotation Zrotation
						JOINT LeftArmRoll
						{
							OFFSET 0.000000 -0.000002 7.090988
							CHANNELS 3 Xrotation Yrotation Zrotation
							JOINT LeftForeArm
							{
								OFFSET 0.000000 -0.000003 20.653503
								CHANNELS 3 Xrotation Yrotation Zrotation
								JOINT LeftForeArmRoll
								{
									OFFSET 0.000000 -0.000002 7.957184
									CHANNELS 3 Xrotation Yrotation Zrotation
									JOINT LeftHand
									{
										OFFSET 0.000000 -0.000002 15.968307
										CHANNELS 3 Xrotation Yrotation Zrotation
										End Site
										{
											OFFSET 0.000000 0.000000 0.100006
										}
									}
								}
							}
						}
					}
				}
			}
		}
	}
	JOINT RightUpLeg
	{
		OFFSET -7.208340 1.108840 -1.321823
		CHANNELS 3 Xrotation Yrotation Zrotation
		JOINT RightUpLegRoll
		{
			OFFSET 0.000000 -0.000003 18.723801
			CHANNELS 3 Xrotation Yrotation Zrotation
			JOINT RightLeg
			{
				OFFSET 0.000000 0.000004 -23.186600
				CHANNELS 3 Xrotation Yrotation Zrotation
				JOINT RightLegRoll
				{
					OFFSET 0.000000 -0.000004 23.262398
					CHANNELS 3 Xrotation Yrotation Zrotation
					JOINT RightFoot
					{
						OFFSET 0.000000 -0.000004 19.362099
						CHANNELS 3 Xrotation Yrotation Zrotation
						JOINT RightToeBase
						{
							OFFSET 0.000000 -0.000002 16.185699
							CHANNELS 3 Xrotation Yrotation Zrotation
							End Site
							{
								OFFSET 0.006859 0.903520 7.838623
							}
						}
					}
				}
			}
		}
	}
	JOINT LeftUpLeg
	{
		OFFSET 7.208340 1.108840 -1.321823
		CHANNELS 3 Xrotation Yrotation Zrotation
		JOINT LeftUpLegRoll
		{
			OFFSET 0.000000 -0.000003 18.723900
			CHANNELS 3 Xrotation Yrotation Zrotation
			JOINT LeftLeg
			{
				OFFSET 0.000000 -0.000004 23.186501
				CHANNELS 3 Xrotation Yrotation Zrotation
				JOINT LeftLegRoll
				{
					OFFSET 0.000000 -0.000004 23.477493
					CHANNELS 3 Xrotation Yrotation Zrotation
					JOINT LeftFoot
					{
						OFFSET 0.000000 -0.000004 19.147003
						CHANNELS 3 Xrotation Yrotation Zrotation
						JOINT LeftToeBase
						{
							OFFSET 0.000000 -0.000002 16.185699
							CHANNELS 3 Xrotation Yrotation Zrotation
							End Site
							{
								OFFSET -0.030746 0.903521 7.838623
							}
						}
					}
				}
			}
		}
	}
}
MOTION
Frames: 9
Frame Time: 0.041667
53.591599 -8.541553 95.910500 -3.029569 0.209696 0.353648 -1.374190 -0.489435 0.094676 1.255214 -0.979842 0.182410 2.900383 -0.977988 0.194142 11.825933 6.194390 -4.905186 -5.497760 -3.694087 -5.045554 -17.731383 -59.002070 -20.956289 -39.537069 -115.392003 -21.606701 -0.000002 -0.000000 -0.000005 9.440882 -10.418840 -0.027318 0.000002 -0.000009 -3.000004 -5.000221 -7.998783 0.000152 -15.222846 63.346603 18.088578 -41.252468 111.917253 29.325240 0.000003 -0.000023 0.000000 3.325215 8.806675 0.635780 -0.000003 -0.000013 3.000001 -5.000243 7.998913 -0.000147 -3.473029 -171.560295 3.689305 -179.999991 0.000004 -0.937998 166.655550 -0.918511 -0.725866 0.000003 -0.000002 0.109646 70.463168 6.262127 3.703747 25.459067 -7.355611 0.003131 -2.289931 172.418003 -2.059126 -0.000021 -0.000004 -0.924076 -13.648899 1.440827 0.793197 -0.000003 -0.000003 -0.128754 72.177341 -6.026194 -4.344648 25.459378 7.355621 -0.003694 
53.585300 -8.541017 95.908394 -3.058687 0.207094 0.343241 -1.363778 -0.487732 0.096779 1.276065 -0.976137 0.186695 2.921233 -0.974670 0.198388 11.778037 6.180763 -4.885911 -5.495798 -3.686423 -5.028600 -17.710011 -59.014508 -20.931098 -39.308333 -115.302459 -21.612395 -0.000001 -0.000001 -0.000004 9.829120 -10.553983 0.008548 0.000001 -0.000008 -3.000002 -5.000219 -7.998783 0.000152 -15.202681 63.336440 18.065058 -41.009105 111.869927 29.162493 0.000003 -0.000024 0.000001 3.630385 8.834190 0.612973 -0.000000 -0.000013 3.000002 -5.000245 7.998914 -0.000148 -3.442314 -171.559039 3.694574 -179.999991 0.000006 -0.937998 166.658474 -0.916581 -0.726357 0.000003 -0.000002 0.109241 70.460368 6.259544 3.711959 25.459064 -7.355610 0.003131 -2.249653 172.418782 -2.065039 -0.000020 -0.000004 -0.924054 -13.636290 1.440175 0.793470 -0.000006 -0.000003 -0.127896 72.174985 -6.024486 -4.349006 25.459376 7.355622 -0.003694 
53.587799 -8.540977 95.909401 -3.089228 0.204416 0.331936 -1.353120 -0.485936 0.099013 1.297397 -0.972239 0.191225 2.942564 -0.971186 0.202877 11.731331 6.166285 -4.866401 -5.494366 -3.678399 -5.011297 -17.688317 -59.028305 -20.905548 -39.083627 -115.211426 -21.620062 -0.000002 -0.000001 -0.000003 10.208758 -10.691180 0.046346 0.000002 -0.000008 -3.000002 -5.000217 -7.998784 0.000151 -15.183864 63.325511 18.043087 -40.771602 111.823775 29.002377 0.000004 -0.000023 0.000002 3.927965 8.861361 0.590517 -0.000001 -0.000013 3.000002 -5.000244 7.998915 -0.000147 -3.410798 -171.559749 3.699379 -179.999991 0.000006 -0.937998 166.660167 -0.913664 -0.725636 0.000003 -0.000002 0.108879 70.458353 6.256787 3.720695 25.459064 -7.355611 0.003131 -2.207598 172.420558 -2.071374 -0.000020 -0.000004 -0.924022 -13.623880 1.439570 0.793798 -0.000004 -0.000002 -0.127017 72.173222 -6.022685 -4.353519 25.459383 7.355621 -0.003695 
53.577202 -8.552826 95.913399 -3.120763 0.201690 0.320003 -1.342296 -0.484078 0.101338 1.319058 -0.968203 0.195926 2.964233 -0.967583 0.207536 11.685318 6.151198 -4.846708 -5.493305 -3.670103 -4.993753 -17.666467 -59.043160 -20.879813 -38.862042 -115.118535 -21.629645 -0.000001 -0.000002 -0.000004 10.582388 -10.829764 0.086012 0.000001 -0.000009 -3.000001 -5.000221 -7.998783 0.000153 -15.166003 63.314071 18.022197 -40.534652 111.779679 28.840358 0.000004 -0.000025 0.000001 4.220248 8.888284 0.568245 0.000001 -0.000013 3.000001 -5.000243 7.998915 -0.000148 -3.378728 -171.559476 3.703705 -179.999991 0.000005 -0.937001 166.660878 -0.910757 -0.725945 0.000003 -0.000002 0.108548 70.456830 6.253886 3.729878 25.459059 -7.355612 0.003131 -2.164278 172.422347 -2.077993 -0.000021 -0.000003 -0.923982 -13.611576 1.438984 0.794156 -0.000003 -0.000003 -0.126123 72.171877 -6.020820 -4.358199 25.459378 7.355620 -0.003693 
53.575600 -8.551675 95.913696 -3.152849 0.198943 0.307708 -1.331375 -0.482183 0.103715 1.340920 -0.964089 0.200721 2.986083 -0.963912 0.212290 11.639704 6.135768 -4.826935 -5.492458 -3.661667 -4.976058 -17.644455 -59.058535 -20.853899 -38.640655 -115.025303 -21.638297 -0.000002 -0.000001 -0.000005 10.952817 -10.969152 0.127551 0.000002 -0.000008 -3.000001 -5.000220 -7.998784 0.000151 -15.148572 63.302166 18.001799 -40.300513 111.735782 28.679930 0.000003 -0.000023 0.000001 4.509518 8.915063 0.545969 -0.000001 -0.000013 3.000001 -5.000243 7.998914 -0.000146 -3.346350 -171.559203 3.707809 -179.999991 0.000006 -0.937001 166.661206 -0.906864 -0.726015 0.000003 -0.000001 0.108238 70.455601 6.250930 3.739237 25.459062 -7.355608 0.003129 -2.120258 172.423126 -2.084714 -0.000020 -0.000004 -0.923939 -13.599468 1.438425 0.794543 -0.000005 -0.000002 -0.125220 72.170723 -6.018925 -4.362960 25.459382 7.355622 -0.003694 
53.567902 -8.543428 95.910500 -3.185088 0.196201 0.295321 -1.320436 -0.480277 0.106105 1.362821 -0.959952 0.205539 3.007993 -0.960220 0.217066 11.594192 6.120217 -4.807157 -5.491674 -3.653190 -4.958332 -17.622383 -59.074019 -20.827909 -38.419674 -114.930582 -21.647127 0.000000 0.000000 -0.000002 11.322771 -11.108544 0.170920 0.000003 -0.000009 -3.000000 -5.000222 -7.998783 0.000154 -15.131403 63.290336 17.981685 -40.067293 111.691536 28.520172 0.000004 -0.000023 0.000002 4.798066 8.941818 0.523488 -0.000000 -0.000013 3.000001 -5.000244 7.998913 -0.000147 -3.313880 -171.559940 3.711912 -179.999991 0.000006 -0.937001 166.661315 -0.902969 -0.726086 0.000003 -0.000002 0.107931 70.454480 6.247980 3.748489 25.459064 -7.355612 0.003130 -2.076055 172.424915 -2.091524 -0.000020 -0.000004 -0.923894 -13.587359 1.437858 0.794929 -0.000005 -0.000003 -0.124314 72.169589 -6.017059 -4.367728 25.459376 7.355621 -0.003694 
53.567799 -8.546085 95.911102 -3.217040 0.193490 0.283110 -1.309534 -0.478390 0.108466 1.384632 -0.955850 0.210304 3.029793 -0.956559 0.221789 11.548486 6.104811 -4.787464 -5.490772 -3.644784 -4.940690 -17.600325 -59.089182 -20.801942 -38.197331 -114.835028 -21.654894 -0.000000 -0.000002 -0.000003 11.694996 -11.247432 0.216132 -0.000003 -0.000009 -2.999999 -5.000221 -7.998785 0.000151 -15.113909 63.278547 17.961214 -39.830453 111.648082 28.357296 0.000002 -0.000022 0.000001 5.088190 8.968628 0.500625 -0.000001 -0.000013 3.000002 -5.000244 7.998914 -0.000148 -3.281572 -171.559667 3.716065 -179.999991 0.000005 -0.937001 166.661629 -0.899075 -0.726156 0.000003 -0.000001 0.107613 70.453162 6.245050 3.757761 25.459064 -7.355611 0.003131 -2.032207 172.425708 -2.098210 -0.000020 -0.000003 -0.923851 -13.575251 1.437290 0.795309 -0.000005 -0.000003 -0.123414 72.168325 -6.015161 -4.372600 25.459382 7.355619 -0.003692 
53.576500 -8.573626 95.920792 -3.248276 0.190835 0.271344 -1.298765 -0.476546 0.110763 1.406205 -0.951839 0.214942 3.051362 -0.952976 0.226389 11.502186 6.089791 -4.767938 -5.489610 -3.636561 -4.923206 -17.578434 -59.103703 -20.776167 -37.970145 -114.740006 -21.658392 -0.000002 -0.000002 -0.000005 12.072125 -11.385177 0.263174 -0.000002 -0.000008 -2.999999 -5.000223 -7.998784 0.000151 -15.095804 63.267229 17.940049 -39.591724 111.603474 28.194251 0.000002 -0.000023 0.000000 5.382163 8.995621 0.477169 -0.000000 -0.000014 3.000000 -5.000245 7.998914 -0.000148 -3.249661 -171.560405 3.720584 -179.999991 0.000005 -0.937002 166.662736 -0.896169 -0.726445 0.000003 -0.000002 0.107275 70.451537 6.242179 3.766854 25.459064 -7.355612 0.003132 -1.989255 172.427525 -2.104741 -0.000020 -0.000005 -0.923814 -13.562944 1.436703 0.795661 -0.000005 -0.000003 -0.122523 72.166877 -6.013327 -4.377186 25.459380 7.355622 -0.003694 
53.565601 -8.569179 95.918106 -3.278386 0.188257 0.260291 -1.288183 -0.474773 0.112953 1.427396 -0.947978 0.219380 3.072553 -0.949521 0.230789 11.455102 6.075395 -4.748663 -5.488022 -3.628635 -4.906015 -17.556731 -59.117084 -20.750598 -37.737287 -114.645285 -21.657357 0.000001 -0.000001 -0.000004 12.456898 -11.521129 0.312082 -0.000001 -0.000008 -3.000000 -5.000221 -7.998782 0.000150 -15.076635 63.256431 17.917661 -39.346097 111.558791 28.026740 0.000000 -0.000024 0.000000 5.682280 9.022885 0.452915 -0.000001 -0.000013 3.000001 -5.000244 7.998914 -0.000147 -3.218400 -171.559148 3.725447 -179.999991 0.000006 -0.937002 166.664744 -0.893251 -0.725721 0.000003 -0.000002 0.106899 70.449235 6.239475 3.775417 25.459064 -7.355610 0.003131 -1.947728 172.428331 -2.110927 -0.000020 -0.000004 -0.923785 -13.550437 1.436079 0.795971 -0.000003 -0.000003 -0.121651 72.164924 -6.011554 -4.381615 25.459376 7.355621 -0.003695 
